<svg xmlns="http://www.w3.org/2000/svg" width="495" height="195" viewBox="0 0 495 195" role="img" aria-label="Most used languages on GitHub"><style>text { font-family: 'Segoe UI', Ubuntu, "Helvetica Neue", Sans-Serif }</style><rect x="0.5" y="0.5" rx="5" ry="5" width="494" height="194" fill="#20232a"/><text x="25" y="38" font-size="18" fill="#61dafb">Most Used Languages</text><g clip-path="url(#r)"><rect x="25.00" y="58" width="334.64" height="10" fill="#f1e05a"/><rect x="359.64" y="58" width="68.25" height="10" fill="#178600"/><rect x="427.89" y="58" width="17.49" height="10" fill="#663399"/><rect x="445.38" y="58" width="14.92" height="10" fill="#e34c26"/><rect x="460.30" y="58" width="6.58" height="10" fill="#b07219"/><rect x="466.88" y="58" width="3.12" height="10" fill="#3572A5"/></g><defs><clipPath id="r"><rect x="25" y="58" width="445" height="10" rx="5"/></clipPath></defs><circle cx="30" cy="96" r="5" fill="#f1e05a"/><text x="44" y="100" font-size="13" fill="#ffffff">JavaScript 75.20%</text><circle cx="265" cy="96" r="5" fill="#178600"/><text x="279" y="100" font-size="13" fill="#ffffff">C# 15.34%</text><circle cx="30" cy="124" r="5" fill="#663399"/><text x="44" y="128" font-size="13" fill="#ffffff">CSS 3.93%</text><circle cx="265" cy="124" r="5" fill="#e34c26"/><text x="279" y="128" font-size="13" fill="#ffffff">HTML 3.35%</text><circle cx="30" cy="152" r="5" fill="#b07219"/><text x="44" y="156" font-size="13" fill="#ffffff">Java 1.48%</text><circle cx="265" cy="152" r="5" fill="#3572A5"/><text x="279" y="156" font-size="13" fill="#ffffff">Python 0.70%</text></svg>