<svg xmlns="http://www.w3.org/2000/svg" width="495" height="195" viewBox="0 0 495 195" role="img" aria-label="Most used languages on GitHub"><style>text { font-family: 'Segoe UI', Ubuntu, "Helvetica Neue", Sans-Serif }</style><rect x="0.5" y="0.5" rx="5" ry="5" width="494" height="194" fill="#20232a"/><text x="25" y="38" font-size="18" fill="#61dafb">Most Used Languages</text><g clip-path="url(#r)"><rect x="25.00" y="58" width="293.14" height="10" fill="#178600"/><rect x="318.14" y="58" width="48.98" height="10" fill="#f1e05a"/><rect x="367.13" y="58" width="42.11" height="10" fill="#663399"/><rect x="409.23" y="58" width="28.27" height="10" fill="#b07219"/><rect x="437.50" y="58" width="25.29" height="10" fill="#e34c26"/><rect x="462.79" y="58" width="7.21" height="10" fill="#3572A5"/></g><defs><clipPath id="r"><rect x="25" y="58" width="445" height="10" rx="5"/></clipPath></defs><circle cx="30" cy="96" r="5" fill="#178600"/><text x="44" y="100" font-size="13" fill="#ffffff">C# 65.87%</text><circle cx="265" cy="96" r="5" fill="#f1e05a"/><text x="279" y="100" font-size="13" fill="#ffffff">JavaScript 11.01%</text><circle cx="30" cy="124" r="5" fill="#663399"/><text x="44" y="128" font-size="13" fill="#ffffff">CSS 9.46%</text><circle cx="265" cy="124" r="5" fill="#b07219"/><text x="279" y="128" font-size="13" fill="#ffffff">Java 6.35%</text><circle cx="30" cy="152" r="5" fill="#e34c26"/><text x="44" y="156" font-size="13" fill="#ffffff">HTML 5.68%</text><circle cx="265" cy="152" r="5" fill="#3572A5"/><text x="279" y="156" font-size="13" fill="#ffffff">Python 1.62%</text></svg>